<svg width="16" height="16" viewBox="0 0 16 16" fill="none" xmlns="http://www.w3.org/2000/svg">
<path fill-rule="evenodd" clip-rule="evenodd" d="M14.875 5.87522C15.2202 5.87522 15.5 5.5954 15.5 5.25022V3.37522C15.4999 3.11208 15.335 2.87719 15.0875 2.78772L8.2125 0.287722C8.07518 0.238077 7.92482 0.238077 7.7875 0.287722L0.9125 2.78772C0.665033 2.87719 0.500112 3.11208 0.5 3.37522V5.25022C0.5 5.5954 0.779822 5.87522 1.125 5.87522H1.75V14.0002H0.5V15.2502H15.5V14.0002H14.25V5.87522H14.875ZM1.75 3.81272L8 1.53772L14.25 3.81272V4.62522H1.75V3.81272ZM9.25 14.0002H6.75V5.87522H9.25V14.0002ZM3 5.87522H5.5V14.0002H3V5.87522ZM13 14.0002H10.5V5.87522H13V14.0002Z" fill="#212121"/>
</svg>
