<svg width="16" height="17" viewBox="0 0 16 17" fill="none" xmlns="http://www.w3.org/2000/svg">
<path fill-rule="evenodd" clip-rule="evenodd" d="M14.25 1.5188H11.75V0.268799H10.5V1.5188H5.5V0.268799H4.25V1.5188H1.75C1.05964 1.5188 0.5 2.07844 0.5 2.7688V15.2688C0.5 15.9592 1.05964 16.5188 1.75 16.5188H14.25C14.9404 16.5188 15.5 15.9592 15.5 15.2688V2.7688C15.5 2.07844 14.9404 1.5188 14.25 1.5188ZM14.25 15.2688H1.75V6.5188H14.25V15.2688ZM14.25 5.2688H1.75V2.7688H4.25V4.0188H5.5V2.7688H10.5V4.0188H11.75V2.7688H14.25V5.2688Z" fill="#212121"/>
</svg>
