<svg width="72" height="72" viewBox="0 0 72 72" fill="none" xmlns="http://www.w3.org/2000/svg">
<path fill-rule="evenodd" clip-rule="evenodd" d="M46.4998 45.4425L40.8373 39.75C43.6493 36.3571 43.2985 31.3533 40.0405 28.386C36.7825 25.4188 31.7677 25.5359 28.6517 28.6519C25.5357 31.7679 25.4187 36.7826 28.3859 40.0406C31.3531 43.2986 36.357 43.6495 39.7498 40.8375L45.4423 46.5L46.4998 45.4425ZM27.7498 34.5C27.7498 30.772 30.7719 27.75 34.4998 27.75C38.2278 27.75 41.2498 30.772 41.2498 34.5C41.2498 38.2279 38.2278 41.25 34.4998 41.25C30.7719 41.25 27.7498 38.2279 27.7498 34.5Z" fill="#A8A8A8"/>
</svg>
