<svg width="72" height="72" viewBox="0 0 72 72" fill="none" xmlns="http://www.w3.org/2000/svg">
<path fill-rule="evenodd" clip-rule="evenodd" d="M40.8375 39.75L46.5 45.4425L45.4425 46.5L39.75 40.8375C36.3571 43.6495 31.3533 43.2986 28.386 40.0406C25.4188 36.7826 25.5359 31.7679 28.6519 28.6519C31.7679 25.5359 36.7826 25.4188 40.0406 28.386C43.2986 31.3533 43.6495 36.3571 40.8375 39.75ZM34.5 27.75C30.772 27.75 27.75 30.772 27.75 34.5C27.75 38.2279 30.772 41.25 34.5 41.25C38.2279 41.25 41.25 38.2279 41.25 34.5C41.25 30.772 38.2279 27.75 34.5 27.75Z" fill="#363636"/>
<path fill-rule="evenodd" clip-rule="evenodd" d="M30 34.5C30 32.0147 32.0147 30 34.5 30C36.9853 30 39 32.0147 39 34.5C39 36.9853 36.9853 39 34.5 39C32.0147 39 30 36.9853 30 34.5Z" fill="#363636"/>
</svg>
