<svg width="72" height="72" viewBox="0 0 72 72" fill="none" xmlns="http://www.w3.org/2000/svg">
<path fill-rule="evenodd" clip-rule="evenodd" d="M36.4575 25.6575C36.1849 25.4421 35.8001 25.4421 35.5275 25.6575L24.75 34.065L25.68 35.25L27 34.215V43.5C27 44.3284 27.6716 45 28.5 45H43.5C44.3284 45 45 44.3284 45 43.5V34.2225L46.32 35.25L47.25 34.0725L36.4575 25.6575ZM37.5 43.5H34.5V37.5H37.5V43.5ZM39 43.5V37.5C39 36.6716 38.3284 36 37.5 36H34.5C33.6716 36 33 36.6716 33 37.5V43.5H28.5V33.045L36 27.2025L43.5 33.0525V43.5H39Z" fill="#A8A8A8"/>
</svg>
