<svg width="72" height="72" viewBox="0 0 72 72" fill="none" xmlns="http://www.w3.org/2000/svg">
<path fill-rule="evenodd" clip-rule="evenodd" d="M37.5 43.5H34.5V37.5H37.5V43.5Z" fill="#363636"/>
<path fill-rule="evenodd" clip-rule="evenodd" d="M35.5275 25.6575C35.8001 25.4421 36.1849 25.4421 36.4575 25.6575L47.25 34.0725L46.32 35.25L45 34.2225V43.5C45 44.3284 44.3284 45 43.5 45H28.5C27.6716 45 27 44.3284 27 43.5V34.215L25.68 35.25L24.75 34.065L35.5275 25.6575ZM39 37.5V43.5H43.5V33.0525L36 27.2025L28.5 33.045V43.5H33V37.5C33 36.6716 33.6716 36 34.5 36H37.5C38.3284 36 39 36.6716 39 37.5Z" fill="#363636"/>
</svg>
