<svg width="72" height="72" viewBox="0 0 72 72" fill="none" xmlns="http://www.w3.org/2000/svg">
<path fill-rule="evenodd" clip-rule="evenodd" d="M25.5 36.25C25.5 42.049 30.201 46.75 36 46.75C41.799 46.75 46.5 42.049 46.5 36.25C46.5 30.451 41.799 25.75 36 25.75C30.201 25.75 25.5 30.451 25.5 36.25ZM27 36.25C27 31.2794 31.0294 27.25 36 27.25C40.9706 27.25 45 31.2794 45 36.25C45 41.2206 40.9706 45.25 36 45.25C31.0294 45.25 27 41.2206 27 36.25ZM36.75 40.5V33.75H33.75V35.25H35.25V40.5H33V42H39V40.5H36.75ZM34.875 30.375C34.875 29.7537 35.3787 29.25 36 29.25C36.6213 29.25 37.125 29.7537 37.125 30.375C37.125 30.9963 36.6213 31.5 36 31.5C35.3787 31.5 34.875 30.9963 34.875 30.375Z" fill="#A8A8A8"/>
</svg>
