<svg width="72" height="72" viewBox="0 0 72 72" fill="none" xmlns="http://www.w3.org/2000/svg">
<path fill-rule="evenodd" clip-rule="evenodd" d="M36 25.5C30.201 25.5 25.5 30.201 25.5 36C25.5 41.799 30.201 46.5 36 46.5C41.799 46.5 46.5 41.799 46.5 36C46.5 33.2152 45.3938 30.5445 43.4246 28.5754C41.4555 26.6062 38.7848 25.5 36 25.5ZM36 29.25C36.6213 29.25 37.125 29.7537 37.125 30.375C37.125 30.9963 36.6213 31.5 36 31.5C35.3787 31.5 34.875 30.9963 34.875 30.375C34.875 29.7537 35.3787 29.25 36 29.25ZM39 42.09H33V40.41H35.16V35.34H33.75V33.66H36.8475V40.41H39V42.09Z" fill="#363636"/>
</svg>
