<svg width="25" height="24" viewBox="0 0 25 24" fill="none" xmlns="http://www.w3.org/2000/svg">
<path fill-rule="evenodd" clip-rule="evenodd" d="M17.1708 4.5C18.2739 4.49907 19.3309 4.94242 20.1033 5.73C21.7425 7.39412 21.7425 10.0659 20.1033 11.73L12.3333 19.5975L4.56333 11.73C2.92412 10.0659 2.92412 7.39412 4.56333 5.73C5.33614 4.94301 6.39284 4.49968 7.49583 4.49968C8.59882 4.49968 9.65552 4.94301 10.4283 5.73L12.3333 7.68L14.2308 5.745C15.001 4.94787 16.0624 4.49841 17.1708 4.5ZM17.1708 3C15.6642 2.99873 14.2206 3.60428 13.1658 4.68L12.3333 5.52L11.5008 4.68C10.4448 3.60629 9.00184 3.00157 7.49583 3.00157C5.98981 3.00157 4.54687 3.60629 3.49083 4.68C1.27812 6.9325 1.27812 10.5425 3.49083 12.795L12.3333 21.75L21.1758 12.795C23.3885 10.5425 23.3885 6.9325 21.1758 4.68C20.1201 3.60571 18.6771 3.00042 17.1708 3Z" fill="#808080"/>
</svg>
