<svg width="24" height="24" viewBox="0 0 24 24" fill="none" xmlns="http://www.w3.org/2000/svg">
<g clip-path="url(#clip0_415_27537)">
<path fill-rule="evenodd" clip-rule="evenodd" d="M13.5 21H10.5C9.67157 21 9 20.3284 9 19.5V13.8075L3.4425 8.25C3.16081 7.96999 3.00167 7.58968 3 7.1925V4.5C3 3.67157 3.67157 3 4.5 3H19.5C20.3284 3 21 3.67157 21 4.5V7.1925C20.9983 7.58968 20.8392 7.96999 20.5575 8.25L15 13.8075V19.5C15 20.3284 14.3284 21 13.5 21Z" fill="#212121"/>
<path fill-rule="evenodd" clip-rule="evenodd" d="M4.5 4.5V7.1925L10.5 13.1925V19.5H13.5V13.1925L19.5 7.1925V4.5H4.5Z" fill="#212121"/>
<circle cx="20.2344" cy="3.78125" r="6" fill="white"/>
<circle cx="20.2344" cy="3.78125" r="3.75" fill="#EA4A4A"/>
</g>
<defs>
<clipPath id="clip0_415_27537">
<rect width="24" height="24" fill="white"/>
</clipPath>
</defs>
</svg>
