<svg width="16" height="18" viewBox="0 0 16 18" fill="none" xmlns="http://www.w3.org/2000/svg">
<path fill-rule="evenodd" clip-rule="evenodd" d="M0.5 0V1.25H3.625V5.625C3.625 8.04125 5.58375 10 8 10C10.4162 10 12.375 8.04125 12.375 5.625V1.25H15.5V0H0.5ZM4.875 1.25H11.125V3.125H4.875V1.25ZM4.875 5.625C4.875 7.35089 6.27411 8.75 8 8.75C9.72589 8.75 11.125 7.35089 11.125 5.625V4.375H4.875V5.625ZM14.25 17.75H13V15.875C12.9979 14.15 11.6 12.7521 9.875 12.75H6.125C4.39997 12.7521 3.00207 14.15 3 15.875V17.75H1.75V15.875C1.75276 13.4599 3.7099 11.5028 6.125 11.5H9.875C12.2901 11.5028 14.2472 13.4599 14.25 15.875V17.75ZM0.5 3.375C0.5 3.02982 0.779822 2.75 1.125 2.75C1.47018 2.75 1.75 3.02982 1.75 3.375V9H0.5V3.375Z" fill="#212121"/>
</svg>
