<svg width="114" height="100" viewBox="0 0 114 100" fill="none" xmlns="http://www.w3.org/2000/svg">
<path d="M82.7984 2.00001L82.7995 2.00001C90.2966 2.00207 97.4787 5.01481 102.734 10.3619C113.769 21.5962 113.77 39.6003 102.736 50.8357C102.735 50.8366 102.734 50.8375 102.733 50.8385L57.0001 97.1535L11.2668 50.8385C11.2662 50.8378 11.2656 50.8372 11.265 50.8365C0.230351 39.6014 0.230687 21.5971 11.266 10.3624C16.5222 5.01824 23.7042 2.00839 31.2001 2.00839C38.696 2.00839 45.8779 5.01824 51.1342 10.3624L51.1395 10.3679L55.5795 14.8479L57.0001 16.2812L58.4206 14.8479L62.8606 10.3679L62.8681 10.3603C68.1172 5.00712 75.3011 1.99366 82.7984 2.00001Z" stroke="#F0F0F0" stroke-width="4"/>
</svg>
