<svg width="24" height="24" viewBox="0 0 24 24" fill="none" xmlns="http://www.w3.org/2000/svg">
<path d="M15.87 22.08L8.16005 19.38L3.15005 21.36C2.85005 21.52 2.55005 21.51 2.25005 21.33C1.95005 21.15 1.80005 20.87 1.80005 20.49V4.8C1.80005 4.58 1.86505 4.375 1.99505 4.185C2.12505 3.995 2.30005 3.86 2.52005 3.78L8.16005 1.8L15.87 4.47L20.85 2.52C21.15 2.36 21.4501 2.365 21.75 2.535C22.05 2.705 22.2001 2.96 22.2001 3.3V19.26C22.2001 19.46 22.1301 19.64 21.9901 19.8C21.8501 19.96 21.68 20.07 21.48 20.13L15.87 22.08ZM15.09 20.4V5.55L8.91005 3.45V18.3L15.09 20.4ZM16.44 20.4L20.85 18.96V3.9L16.44 5.55V20.4ZM3.15005 19.95L7.56005 18.3V3.45L3.15005 4.92V19.95Z" fill="black"/>
<path d="M3.15005 19.95L7.56005 18.3V3.45L3.15005 4.92V19.95Z" fill="black"/>
<path d="M16.44 20.4L20.85 18.96V3.9L16.44 5.55V20.4Z" fill="black"/>
</svg>
