<svg width="24" height="24" viewBox="0 0 24 24" fill="none" xmlns="http://www.w3.org/2000/svg">
<path d="M15.87 22.08L8.16005 19.38L3.15005 21.36C2.85005 21.52 2.55005 21.51 2.25005 21.33C1.95005 21.15 1.80005 20.87 1.80005 20.49V4.79999C1.80005 4.57999 1.86505 4.37499 1.99505 4.18499C2.12505 3.99499 2.30005 3.85999 2.52005 3.77999L8.16005 1.79999L15.87 4.46999L20.85 2.51999C21.15 2.35999 21.4501 2.36499 21.75 2.53499C22.05 2.70499 22.2001 2.95999 22.2001 3.29999V19.26C22.2001 19.46 22.1301 19.64 21.9901 19.8C21.85 19.96 21.68 20.07 21.48 20.13L15.87 22.08ZM15.09 20.4V5.54999L8.91005 3.44999V18.3L15.09 20.4ZM16.44 20.4L20.85 18.96V3.89999L16.44 5.54999V20.4ZM3.15005 19.95L7.56005 18.3V3.44999L3.15005 4.91999V19.95ZM16.44 5.54999V20.4V5.54999ZM7.56005 3.44999V18.3V3.44999Z" fill="#808080"/>
</svg>
