<svg width="24" height="24" viewBox="0 0 24 24" fill="none" xmlns="http://www.w3.org/2000/svg">
<path d="M3 14.5C4.38071 14.5 5.5 13.3807 5.5 12C5.5 10.6193 4.38071 9.5 3 9.5C1.61929 9.5 0.5 10.6193 0.5 12C0.5 13.3807 1.61929 14.5 3 14.5Z" fill="#212121" stroke="#212121"/>
<path d="M12 14.5C13.3807 14.5 14.5 13.3807 14.5 12C14.5 10.6193 13.3807 9.5 12 9.5C10.6193 9.5 9.5 10.6193 9.5 12C9.5 13.3807 10.6193 14.5 12 14.5Z" fill="#212121" stroke="#212121"/>
<path d="M21 14.5C22.3807 14.5 23.5 13.3807 23.5 12C23.5 10.6193 22.3807 9.5 21 9.5C19.6193 9.5 18.5 10.6193 18.5 12C18.5 13.3807 19.6193 14.5 21 14.5Z" fill="#212121" stroke="#212121"/>
</svg>
