<svg width="16" height="16" viewBox="0 0 16 16" fill="none" xmlns="http://www.w3.org/2000/svg">
<path fill-rule="evenodd" clip-rule="evenodd" d="M1.75 0.5H14.25C14.9404 0.5 15.5 1.05964 15.5 1.75V14.25C15.5 14.9404 14.9404 15.5 14.25 15.5H1.75C1.05964 15.5 0.5 14.9404 0.5 14.25V1.75C0.5 1.05964 1.05964 0.5 1.75 0.5ZM1.75 14.25H14.25V13L11.125 9.875L10.1313 10.8687C9.6437 11.3534 8.8563 11.3534 8.36875 10.8687L4.875 7.375L1.75 10.5V14.25ZM14.25 11.2312L12.0063 8.9875C11.5187 8.50285 10.7313 8.50285 10.2437 8.9875L9.25 9.98125L5.75625 6.4875C5.2687 6.00285 4.4813 6.00285 3.99375 6.4875L1.75 8.73125V1.75H14.25V11.2312ZM10.5 4.875C10.5 4.52982 10.2202 4.25 9.875 4.25C9.52982 4.25 9.25 4.52982 9.25 4.875C9.25 5.22018 9.52982 5.5 9.875 5.5C10.2202 5.5 10.5 5.22018 10.5 4.875Z" fill="#212121"/>
</svg>
