<svg width="36" height="36" viewBox="0 0 36 36" fill="none" xmlns="http://www.w3.org/2000/svg">
<g filter="url(#filter0_b_3_3955)">
<path d="M0 18C0 8.05887 8.05887 0 18 0V0C27.9411 0 36 8.05887 36 18V18C36 27.9411 27.9411 36 18 36V36C8.05887 36 0 27.9411 0 18V18Z" fill="#212121" fill-opacity="0.8"/>
<path fill-rule="evenodd" clip-rule="evenodd" d="M22.375 20.4999C21.4274 20.5047 20.5332 20.9392 19.9438 21.6812L15.375 18.8249C15.5415 18.2875 15.5415 17.7123 15.375 17.1749L19.9438 14.3187C20.9012 15.5043 22.5743 15.8263 23.9035 15.081C25.2327 14.3356 25.8304 12.7401 25.3181 11.3048C24.8058 9.86957 23.333 9.01311 21.8322 9.27777C20.3314 9.54243 19.2404 10.851 19.25 12.3749C19.253 12.6544 19.295 12.9321 19.375 13.1999L14.8063 16.0562C13.9795 15.0155 12.585 14.6115 11.33 15.0493C10.075 15.4871 9.23432 16.6708 9.23432 17.9999C9.23432 19.3291 10.075 20.5128 11.33 20.9506C12.585 21.3883 13.9795 20.9844 14.8063 19.9437L19.375 22.7999C19.295 23.0678 19.253 23.3454 19.25 23.6249C19.25 25.3508 20.6491 26.7499 22.375 26.7499C24.1009 26.7499 25.5 25.3508 25.5 23.6249C25.5 21.899 24.1009 20.4999 22.375 20.4999ZM22.375 10.4999C23.4105 10.4999 24.25 11.3394 24.25 12.3749C24.25 13.4105 23.4105 14.2499 22.375 14.2499C21.3395 14.2499 20.5 13.4105 20.5 12.3749C20.5 11.3394 21.3395 10.4999 22.375 10.4999ZM12.375 19.8749C11.3395 19.8749 10.5 19.0355 10.5 17.9999C10.5 16.9644 11.3395 16.1249 12.375 16.1249C13.4105 16.1249 14.25 16.9644 14.25 17.9999C14.25 19.0355 13.4105 19.8749 12.375 19.8749ZM22.375 25.4999C21.3395 25.4999 20.5 24.6605 20.5 23.6249C20.5 22.5894 21.3395 21.7499 22.375 21.7499C23.4105 21.7499 24.25 22.5894 24.25 23.6249C24.25 24.6605 23.4105 25.4999 22.375 25.4999Z" fill="white"/>
</g>
<defs>
<filter id="filter0_b_3_3955" x="-2" y="-2" width="40" height="40" filterUnits="userSpaceOnUse" color-interpolation-filters="sRGB">
<feFlood flood-opacity="0" result="BackgroundImageFix"/>
<feGaussianBlur in="BackgroundImage" stdDeviation="1"/>
<feComposite in2="SourceAlpha" operator="in" result="effect1_backgroundBlur_3_3955"/>
<feBlend mode="normal" in="SourceGraphic" in2="effect1_backgroundBlur_3_3955" result="shape"/>
</filter>
</defs>
</svg>
